<?xml version="1.0" encoding="utf-8"?>
<!-- Generator: Adobe Illustrator 22.0.1, SVG Export Plug-In . SVG Version: 6.00 Build 0)  -->
<svg version="1.1" id="Layer_1" xmlns="http://www.w3.org/2000/svg" xmlns:xlink="http://www.w3.org/1999/xlink" x="0px" y="0px"
	 width="2208px" height="2208px" viewBox="0 0 2208 2208" style="enable-background:new 0 0 2208 2208;" xml:space="preserve">
<style type="text/css">
	.st0{fill:#00171F;}
	.st1{fill:#003459;}
	.st2{fill:#FFFFFF;}
	.st3{fill:#02DCCF;}
	.st4{fill:#007DC6;}
</style>
<rect x="-0.3" y="-8.1" class="st0" width="2208" height="2216.1"/>
<g>
	<g>
		<polygon class="st1" points="1425.2,1091.7 1133.9,1333.1 836.2,1037.4 918.3,581.4 1079.5,950 		"/>
		<polygon class="st2" points="1420.3,1091.7 1030,984.9 1030.9,983.9 1276.1,1051.9 1227.1,815.5 1332.9,775.6 		"/>
		<polygon class="st3" points="1276.1,1051.9 1030.9,983.9 1154.3,843.1 1227.1,815.5 		"/>
		<polygon class="st4" points="1227.1,815.5 1154.3,843.1 1030.9,983.9 1030.9,983.9 987.7,738.3 1163.5,506.2 		"/>
	</g>
	<g>
		<polygon class="st1" points="1398.5,1228.7 1107.6,1469.5 809.5,1173.8 891.6,718.3 1053.3,1086.4 		"/>
		<polygon class="st2" points="1393.6,1228.7 1003.2,1121.4 1004.2,1120.4 1249.4,1188.8 1200.9,952.4 1306.7,912.6 		"/>
		<polygon class="st3" points="1249.4,1188.8 1004.2,1120.4 1127.5,979.6 1200.9,952.4 		"/>
		<polygon class="st4" points="1200.9,952.4 1127.5,979.6 1004.2,1120.4 1004.2,1120.4 961,875.2 1137.3,642.6 		"/>
	</g>
</g>
</svg>
