<svg version="1.1" id="Layer_1" xmlns="http://www.w3.org/2000/svg" xmlns:xlink="http://www.w3.org/1999/xlink" x="0px" y="0px"
	 width="127.7px" height="200px" viewBox="0 0 127.7 200" enable-background="new 0 0 127.7 200" xml:space="preserve">
<g>
	<g>
		<polygon fill="#003459" points="127.5,121.4 67.5,171.1 6.2,110.2 23.1,16.3 56.3,92.2 		"/>
		<polygon fill="#FFFFFF" points="126.5,121.4 46.1,99.4 46.3,99.2 96.8,113.2 86.7,64.5 108.5,56.3 		"/>
		<polygon fill="#02DCCF" points="96.8,113.2 46.3,99.2 71.7,70.2 86.7,64.5 		"/>
		<polygon fill="#007DC6" points="86.7,64.5 71.7,70.2 46.3,99.2 46.3,99.2 37.4,48.6 73.6,0.8 		"/>
	</g>
	<g>
		<polygon fill="#003459" points="122,149.6 62.1,199.2 0.7,138.3 17.6,44.5 50.9,120.3 		"/>
		<polygon fill="#FFFFFF" points="121,149.6 40.6,127.5 40.8,127.3 91.3,141.4 81.3,92.7 103.1,84.5 		"/>
		<polygon fill="#02DCCF" points="91.3,141.4 40.8,127.3 66.2,98.3 81.3,92.7 		"/>
		<polygon fill="#007DC6" points="81.3,92.7 66.2,98.3 40.8,127.3 40.8,127.3 31.9,76.8 68.2,28.9 		"/>
	</g>
</g>
</svg>
